# Exported from Wings 3D 1.0.1
mtllib block.mtl
o cube1
#8 vertices, 6 faces
v -5.7735027e-2 -5.7735027e-2 5.7735027e-2
v -5.7735027e-2 5.7735027e-2 5.7735027e-2
v 5.7735027e-2 5.7735027e-2 5.7735027e-2
v 5.7735027e-2 -5.7735027e-2 5.7735027e-2
v -5.7735027e-2 -5.7735027e-2 -5.7735027e-2
v -5.7735027e-2 5.7735027e-2 -5.7735027e-2
v 5.7735027e-2 5.7735027e-2 -5.7735027e-2
v 5.7735027e-2 -5.7735027e-2 -5.7735027e-2
vn 0.0000000e+0 0.0000000e+0 1.00000000
vn 0.0000000e+0 -1.00000000 0.0000000e+0
vn -1.00000000 0.0000000e+0 0.0000000e+0
vn 0.0000000e+0 0.0000000e+0 1.00000000
vn 0.0000000e+0 1.00000000 0.0000000e+0
vn -1.00000000 0.0000000e+0 0.0000000e+0
vn 0.0000000e+0 0.0000000e+0 1.00000000
vn 1.00000000 0.0000000e+0 0.0000000e+0
vn 0.0000000e+0 1.00000000 0.0000000e+0
vn 0.0000000e+0 0.0000000e+0 1.00000000
vn 1.00000000 0.0000000e+0 0.0000000e+0
vn 0.0000000e+0 -1.00000000 0.0000000e+0
vn 0.0000000e+0 -1.00000000 0.0000000e+0
vn 0.0000000e+0 0.0000000e+0 -1.00000000
vn -1.00000000 0.0000000e+0 0.0000000e+0
vn 0.0000000e+0 1.00000000 0.0000000e+0
vn 0.0000000e+0 0.0000000e+0 -1.00000000
vn -1.00000000 0.0000000e+0 0.0000000e+0
vn 1.00000000 0.0000000e+0 0.0000000e+0
vn 0.0000000e+0 1.00000000 0.0000000e+0
vn 0.0000000e+0 0.0000000e+0 -1.00000000
vn 1.00000000 0.0000000e+0 0.0000000e+0
vn 0.0000000e+0 -1.00000000 0.0000000e+0
vn 0.0000000e+0 0.0000000e+0 -1.00000000
g cube1_default
usemtl default
f 1//1 4//10 3//7 2//4
f 1//2 5//13 8//23 4//12
f 2//6 6//18 5//15 1//3
f 3//9 7//20 6//16 2//5
f 4//11 8//22 7//19 3//8
f 6//17 7//21 8//24 5//14
