# Exported from Wings 3D 1.0.1
mtllib invader.mtl
o sphere2
#26 vertices, 48 faces
v 0.48434630 -0.19891004 -4.6144371e-17
v 0.34248455 -0.19891004 -0.34248455
v 2.9657657e-17 -0.19891004 -0.48434630
v -0.34248455 -0.19891004 -0.34248455
v -0.48434630 -0.19891004 -1.0545969e-16
v -0.34248455 -0.19891004 0.34248455
v -8.8972972e-17 -0.19891004 0.48434630
v 0.34248455 -0.19891004 0.34248455
v 0.68496911 -7.9760847e-2 -7.8230687e-18
v 0.48434630 -7.9760847e-2 -0.48434630
v 4.1942261e-17 -7.9760847e-2 -0.68496911
v -0.48434630 -7.9760847e-2 -0.48434630
v -0.68496911 -7.9760847e-2 -9.1707591e-17
v -0.48434630 -7.9760847e-2 0.48434630
v -1.2582678e-16 -7.9760847e-2 0.68496911
v 0.48434630 -7.9760847e-2 0.48434630
v 0.48434630 3.9388343e-2 3.0498234e-17
v 0.34248455 3.9388343e-2 -0.34248455
v 2.9657657e-17 3.9388343e-2 -0.48434630
v -0.34248455 3.9388343e-2 -0.34248455
v -0.48434630 3.9388343e-2 -2.8817081e-17
v -0.34248455 3.9388343e-2 0.34248455
v -8.8972972e-17 3.9388343e-2 0.48434630
v 0.34248455 3.9388343e-2 0.34248455
v 0.0000000e+0 -0.24826325 -6.2017574e-17
v 0.0000000e+0 0.24826325 9.7677527e-17
vt 0.0000000e+0 0.25453378
vt 0.0000000e+0 0.75191835
vt 7.2037289e-2 0.92680319
vt 7.2587157e-2 0.57667745
vt 7.2884705e-2 7.5972196e-2
vt 7.4350202e-2 0.43403105
vt 8.1827405e-2 0.75206450
vt 8.3701605e-2 0.25414466
vt 0.13001938 0.86920479
vt 0.13051225 0.63498840
vt 0.13239424 0.13445791
vt 0.13371519 0.37362684
vt 0.24644001 1.00000000
vt 0.24683713 0.91817343
vt 0.24737306 0.75262768
vt 0.24790900 0.58708193
vt 0.24830612 0.50525536
vt 0.25015469 0.0000000e+0
vt 0.25121804 8.3695755e-2
vt 0.25263264 0.25262768
vt 0.25404724 0.42155960
vt 0.25511060 0.50525536
vt 0.36423388 0.87026696
vt 0.36472674 0.63605057
vt 0.37155009 0.13162851
vt 0.37287104 0.37079745
vt 0.41291872 0.75319086
vt 0.42156368 0.25111070
vt 0.42215897 0.92857791
vt 0.42270884 0.57845216
vt 0.43091508 7.1224306e-2
vt 0.43238058 0.42928316
vt 0.49474613 0.75333701
vt 0.50526528 0.25072157
vn 0.10128238 -0.99397277 -4.1952536e-2
vn 0.10128238 -0.99397277 4.1952536e-2
vn 0.49957938 -0.84118925 -0.20693256
vn 0.49957938 -0.84118925 0.20693256
vn 0.49957938 -0.84118925 -0.20693256
vn 0.49957938 -0.84118925 0.20693256
vn 0.10128238 -0.99397277 -4.1952536e-2
vn 4.1952536e-2 -0.99397277 -0.10128238
vn 0.49957938 -0.84118925 -0.20693256
vn 0.20693256 -0.84118925 -0.49957938
vn 4.1952536e-2 -0.99397277 -0.10128238
vn -4.1952536e-2 -0.99397277 -0.10128238
vn 0.20693256 -0.84118925 -0.49957938
vn -0.20693256 -0.84118925 -0.49957938
vn -0.20693256 -0.84118925 -0.49957938
vn 0.20693256 -0.84118925 -0.49957938
vn -4.1952536e-2 -0.99397277 -0.10128238
vn -0.10128238 -0.99397277 -4.1952536e-2
vn -0.49957938 -0.84118925 -0.20693256
vn -0.20693256 -0.84118925 -0.49957938
vn -0.10128238 -0.99397277 -4.1952536e-2
vn -0.10128238 -0.99397277 4.1952536e-2
vn -0.49957938 -0.84118925 -0.20693256
vn -0.49957938 -0.84118925 0.20693256
vn -0.49957938 -0.84118925 -0.20693256
vn -0.49957938 -0.84118925 0.20693256
vn -0.10128238 -0.99397277 4.1952536e-2
vn -4.1952536e-2 -0.99397277 0.10128238
vn -0.20693256 -0.84118925 0.49957938
vn -0.49957938 -0.84118925 0.20693256
vn -4.1952536e-2 -0.99397277 0.10128238
vn 4.1952536e-2 -0.99397277 0.10128238
vn -0.20693256 -0.84118925 0.49957938
vn 0.20693256 -0.84118925 0.49957938
vn -0.20693256 -0.84118925 0.49957938
vn 0.20693256 -0.84118925 0.49957938
vn 4.1952536e-2 -0.99397277 0.10128238
vn 0.10128238 -0.99397277 4.1952536e-2
vn 0.20693256 -0.84118925 0.49957938
vn 0.49957938 -0.84118925 0.20693256
vn 0.49957938 -0.84118925 -0.20693256
vn 0.49957938 -0.84118925 0.20693256
vn 0.49957938 0.84118925 -0.20693256
vn 0.49957938 0.84118925 0.20693256
vn 0.49957938 -0.84118925 -0.20693256
vn 0.20693256 -0.84118925 -0.49957938
vn 0.49957938 0.84118925 -0.20693256
vn 0.20693256 0.84118925 -0.49957938
vn 0.49957938 -0.84118925 -0.20693256
vn 0.49957938 0.84118925 -0.20693256
vn 0.20693256 0.84118925 -0.49957938
vn 0.20693256 -0.84118925 -0.49957938
vn 0.20693256 -0.84118925 -0.49957938
vn -0.20693256 -0.84118925 -0.49957938
vn -0.20693256 0.84118925 -0.49957938
vn 0.20693256 0.84118925 -0.49957938
vn -0.20693256 -0.84118925 -0.49957938
vn -0.49957938 -0.84118925 -0.20693256
vn -0.20693256 0.84118925 -0.49957938
vn -0.49957938 0.84118925 -0.20693256
vn -0.49957938 0.84118925 -0.20693256
vn -0.20693256 0.84118925 -0.49957938
vn -0.49957938 -0.84118925 -0.20693256
vn -0.20693256 -0.84118925 -0.49957938
vn -0.49957938 -0.84118925 -0.20693256
vn -0.49957938 -0.84118925 0.20693256
vn -0.49957938 0.84118925 0.20693256
vn -0.49957938 0.84118925 -0.20693256
vn -0.49957938 -0.84118925 0.20693256
vn -0.20693256 -0.84118925 0.49957938
vn -0.49957938 0.84118925 0.20693256
vn -0.20693256 0.84118925 0.49957938
vn -0.20693256 0.84118925 0.49957938
vn -0.49957938 0.84118925 0.20693256
vn -0.20693256 -0.84118925 0.49957938
vn -0.49957938 -0.84118925 0.20693256
vn -0.20693256 -0.84118925 0.49957938
vn 0.20693256 -0.84118925 0.49957938
vn 0.20693256 0.84118925 0.49957938
vn -0.20693256 0.84118925 0.49957938
vn 0.20693256 -0.84118925 0.49957938
vn 0.49957938 -0.84118925 0.20693256
vn 0.20693256 0.84118925 0.49957938
vn 0.49957938 0.84118925 0.20693256
vn 0.49957938 0.84118925 0.20693256
vn 0.20693256 0.84118925 0.49957938
vn 0.20693256 -0.84118925 0.49957938
vn 0.49957938 -0.84118925 0.20693256
vn 0.39077512 0.90614278 -0.16186436
vn 0.39077512 0.90614278 0.16186436
vn 0.49957938 0.84118925 -0.20693256
vn 0.49957938 0.84118925 0.20693256
vn 0.49957938 0.84118925 -0.20693256
vn 0.49957938 0.84118925 0.20693256
vn 0.39077512 0.90614278 -0.16186436
vn 0.16186436 0.90614278 -0.39077512
vn 0.49957938 0.84118925 -0.20693256
vn 0.20693256 0.84118925 -0.49957938
vn 0.16186436 0.90614278 -0.39077512
vn -0.16186436 0.90614278 -0.39077512
vn 0.20693256 0.84118925 -0.49957938
vn -0.20693256 0.84118925 -0.49957938
vn -0.20693256 0.84118925 -0.49957938
vn 0.20693256 0.84118925 -0.49957938
vn -0.16186436 0.90614278 -0.39077512
vn -0.39077512 0.90614278 -0.16186436
vn -0.20693256 0.84118925 -0.49957938
vn -0.49957938 0.84118925 -0.20693256
vn -0.39077512 0.90614278 -0.16186436
vn -0.39077512 0.90614278 0.16186436
vn -0.49957938 0.84118925 -0.20693256
vn -0.49957938 0.84118925 0.20693256
vn -0.49957938 0.84118925 0.20693256
vn -0.49957938 0.84118925 -0.20693256
vn -0.39077512 0.90614278 0.16186436
vn -0.16186436 0.90614278 0.39077512
vn -0.49957938 0.84118925 0.20693256
vn -0.20693256 0.84118925 0.49957938
vn -0.16186436 0.90614278 0.39077512
vn 0.16186436 0.90614278 0.39077512
vn -0.20693256 0.84118925 0.49957938
vn 0.20693256 0.84118925 0.49957938
vn 0.20693256 0.84118925 0.49957938
vn -0.20693256 0.84118925 0.49957938
vn 0.16186436 0.90614278 0.39077512
vn 0.39077512 0.90614278 0.16186436
vn 0.20693256 0.84118925 0.49957938
vn 0.49957938 0.84118925 0.20693256
vn 0.10128238 -0.99397277 -4.1952536e-2
vn 4.1952536e-2 -0.99397277 -0.10128238
vn -4.1952536e-2 -0.99397277 -0.10128238
vn -0.10128238 -0.99397277 -4.1952536e-2
vn -0.10128238 -0.99397277 4.1952536e-2
vn -4.1952536e-2 -0.99397277 0.10128238
vn 4.1952536e-2 -0.99397277 0.10128238
vn 0.10128238 -0.99397277 4.1952536e-2
vn 0.39077512 0.90614278 -0.16186436
vn 0.16186436 0.90614278 -0.39077512
vn -0.16186436 0.90614278 -0.39077512
vn -0.39077512 0.90614278 -0.16186436
vn -0.39077512 0.90614278 0.16186436
vn -0.16186436 0.90614278 0.39077512
vn 0.16186436 0.90614278 0.39077512
vn 0.39077512 0.90614278 0.16186436
g sphere2_sphere2_auv
usemtl sphere2_auv
f 1/27/3 10/30/45 9/33/41
f 1/27/6 16/29/88 8/23/40
f 1/27/1 25/15/129 2/24/7
f 2/24/9 10/30/49 1/27/5
f 2/24/8 25/15/130 3/16/11
f 3/16/16 10/30/52 2/24/10
f 3/16/14 12/4/57 11/17/54
f 3/16/12 25/15/131 4/10/17
f 4/10/20 12/4/64 3/16/15
f 4/10/18 25/15/132 5/7/21
f 5/7/25 12/4/63 4/10/19
f 5/7/24 14/3/69 13/2/66
f 5/7/22 25/15/133 6/9/27
f 6/9/30 14/3/76 5/7/26
f 6/9/28 25/15/134 7/14/31
f 7/14/35 14/3/75 6/9/29
f 7/14/34 16/29/81 15/13/78
f 7/14/32 25/15/135 8/23/37
f 8/23/39 16/29/87 7/14/36
f 8/23/38 25/15/136 1/27/2
f 9/33/42 16/29/82 1/27/4
f 9/1/44 17/8/94 16/6/85
f 10/5/50 17/8/93 9/1/43
f 10/5/48 19/19/101 18/11/98
f 11/17/53 10/30/46 3/16/13
f 11/18/56 19/19/104 10/5/51
f 12/31/62 19/19/103 11/18/55
f 12/31/60 21/28/111 20/25/108
f 13/2/65 12/4/58 5/7/23
f 13/34/68 21/28/114 12/31/61
f 14/32/74 21/28/113 13/34/67
f 14/32/72 23/21/121 22/26/118
f 15/13/77 14/3/70 7/14/33
f 15/22/80 23/21/124 14/32/73
f 16/6/84 17/8/92 24/12/128
f 16/6/86 23/21/123 15/22/79
f 17/8/90 26/20/144 24/12/126
f 18/11/97 17/8/91 10/5/47
f 18/11/95 26/20/137 17/8/89
f 19/19/99 26/20/138 18/11/96
f 20/25/107 19/19/102 12/31/59
f 20/25/105 26/20/139 19/19/100
f 21/28/109 26/20/140 20/25/106
f 22/26/117 21/28/112 14/32/71
f 22/26/115 26/20/141 21/28/110
f 23/21/119 26/20/142 22/26/116
f 24/12/127 23/21/122 16/6/83
f 24/12/125 26/20/143 23/21/120
