# Exported from Wings 3D 1.3.0.1
mtllib scene.mtl
o cube11
#8 vertices, 12 faces
v 0.53361280 -3.53992960 -1.49207680
v 0.53361280 -1.53992960 -1.49207680
v 6.66961280 -1.53992960 -1.49207680
v 6.66961280 -3.53992960 -1.49207680
v 0.53361280 -3.53992960 -7.62807680
v 0.53361280 -1.53992960 -7.62807680
v 6.66961280 -1.53992960 -7.62807680
v 6.66961280 -3.53992960 -7.62807680
vn 0.0000000e+0 0.0000000e+0 1.00000000
vn 0.0000000e+0 -1.00000000 0.0000000e+0
vn -1.00000000 0.0000000e+0 0.0000000e+0
vn 0.0000000e+0 0.0000000e+0 1.00000000
vn 0.0000000e+0 1.00000000 0.0000000e+0
vn -1.00000000 0.0000000e+0 0.0000000e+0
vn 0.0000000e+0 0.0000000e+0 1.00000000
vn 0.0000000e+0 1.00000000 0.0000000e+0
vn -1.00000000 0.0000000e+0 0.0000000e+0
vn 0.0000000e+0 0.0000000e+0 1.00000000
vn 1.00000000 0.0000000e+0 0.0000000e+0
vn 0.0000000e+0 1.00000000 0.0000000e+0
vn 0.0000000e+0 0.0000000e+0 1.00000000
vn 1.00000000 0.0000000e+0 0.0000000e+0
vn 0.0000000e+0 -1.00000000 0.0000000e+0
vn 0.0000000e+0 0.0000000e+0 1.00000000
vn 1.00000000 0.0000000e+0 0.0000000e+0
vn 0.0000000e+0 -1.00000000 0.0000000e+0
vn 0.0000000e+0 -1.00000000 0.0000000e+0
vn 0.0000000e+0 0.0000000e+0 -1.00000000
vn -1.00000000 0.0000000e+0 0.0000000e+0
vn 0.0000000e+0 0.0000000e+0 -1.00000000
vn 0.0000000e+0 -1.00000000 0.0000000e+0
vn -1.00000000 0.0000000e+0 0.0000000e+0
vn 0.0000000e+0 1.00000000 0.0000000e+0
vn -1.00000000 0.0000000e+0 0.0000000e+0
vn 0.0000000e+0 0.0000000e+0 -1.00000000
vn 1.00000000 0.0000000e+0 0.0000000e+0
vn 0.0000000e+0 1.00000000 0.0000000e+0
vn 0.0000000e+0 0.0000000e+0 -1.00000000
vn 1.00000000 0.0000000e+0 0.0000000e+0
vn 0.0000000e+0 0.0000000e+0 -1.00000000
vn 0.0000000e+0 1.00000000 0.0000000e+0
vn 1.00000000 0.0000000e+0 0.0000000e+0
vn 0.0000000e+0 -1.00000000 0.0000000e+0
vn 0.0000000e+0 0.0000000e+0 -1.00000000
g cube11_default
usemtl default
s 1
f 1//2 5//23 4//18
f 2//4 4//13 3//10
f 5//20 7//30 8//36
f 6//26 5//21 2//6
s 2
f 1//1 4//16 2//7
f 4//15 5//19 8//35
f 4//17 7//31 3//11
f 6//27 7//32 5//22
s 3
f 2//9 5//24 1//3
f 2//5 7//29 6//25
f 8//34 7//28 4//14
s 4
f 3//12 7//33 2//8
o cube10
#8 vertices, 12 faces
v 2.64584960 0.89646896 4.84836441
v 2.64584960 1.37900881 4.70286081
v 4.64584960 1.37900881 4.70286081
v 4.64584960 0.89646896 4.84836441
v 2.64584960 -1.98357841 -4.70286081
v 2.64584960 -1.50103856 -4.84836441
v 4.64584960 -1.50103856 -4.84836441
v 4.64584960 -1.98357841 -4.70286081
vn 0.0000000e+0 0.28869761 0.95742033
vn 0.0000000e+0 -0.95742033 0.28869761
vn -1.00000000 -8.8324918e-17 0.0000000e+0
vn 0.0000000e+0 0.28869761 0.95742033
vn 0.0000000e+0 0.95742033 -0.28869761
vn -1.00000000 0.0000000e+0 0.0000000e+0
vn 0.0000000e+0 0.28869761 0.95742033
vn 0.0000000e+0 0.95742033 -0.28869761
vn -1.00000000 -8.8324918e-17 0.0000000e+0
vn 0.0000000e+0 0.28869761 0.95742033
vn 1.00000000 8.8324918e-17 0.0000000e+0
vn 0.0000000e+0 0.95742033 -0.28869761
vn 0.0000000e+0 0.28869761 0.95742033
vn 1.00000000 0.0000000e+0 0.0000000e+0
vn 0.0000000e+0 -0.95742033 0.28869761
vn 0.0000000e+0 0.28869761 0.95742033
vn 1.00000000 8.8324918e-17 0.0000000e+0
vn 0.0000000e+0 -0.95742033 0.28869761
vn 0.0000000e+0 -0.95742033 0.28869761
vn 0.0000000e+0 -0.28869761 -0.95742033
vn -1.00000000 0.0000000e+0 0.0000000e+0
vn 0.0000000e+0 -0.28869761 -0.95742033
vn 0.0000000e+0 -0.95742033 0.28869761
vn -1.00000000 -8.8324918e-17 0.0000000e+0
vn 0.0000000e+0 0.95742033 -0.28869761
vn -1.00000000 0.0000000e+0 0.0000000e+0
vn 0.0000000e+0 -0.28869761 -0.95742033
vn 1.00000000 0.0000000e+0 0.0000000e+0
vn 0.0000000e+0 0.95742033 -0.28869761
vn 0.0000000e+0 -0.28869761 -0.95742033
vn 1.00000000 8.8324918e-17 0.0000000e+0
vn 0.0000000e+0 -0.28869761 -0.95742033
vn 0.0000000e+0 0.95742033 -0.28869761
vn 1.00000000 0.0000000e+0 0.0000000e+0
vn 0.0000000e+0 -0.95742033 0.28869761
vn 0.0000000e+0 -0.28869761 -0.95742033
g cube10_default
usemtl default
s 1
f 9//38 13//59 12//54
f 10//40 12//49 11//46
f 13//56 15//66 16//72
f 14//62 13//57 10//42
s 2
f 9//37 12//52 10//43
f 12//51 13//55 16//71
f 12//53 15//67 11//47
f 14//63 15//68 13//58
s 3
f 10//45 13//60 9//39
f 10//41 15//65 14//61
f 16//70 15//64 12//50
s 4
f 11//48 15//69 10//44
o cube9
#8 vertices, 12 faces
v -6.47492800 -1.00000000 3.58048000
v -6.47492800 1.00000000 3.58048000
v 2.64107200 1.00000000 3.58048000
v 2.64107200 -1.00000000 3.58048000
v -6.47492800 -1.00000000 1.58048000
v -6.47492800 1.00000000 1.58048000
v 2.64107200 1.00000000 1.58048000
v 2.64107200 -1.00000000 1.58048000
vn 0.0000000e+0 0.0000000e+0 1.00000000
vn 0.0000000e+0 -1.00000000 0.0000000e+0
vn -1.00000000 0.0000000e+0 0.0000000e+0
vn 0.0000000e+0 0.0000000e+0 1.00000000
vn 0.0000000e+0 1.00000000 0.0000000e+0
vn -1.00000000 0.0000000e+0 0.0000000e+0
vn 0.0000000e+0 0.0000000e+0 1.00000000
vn 0.0000000e+0 1.00000000 0.0000000e+0
vn -1.00000000 0.0000000e+0 0.0000000e+0
vn 0.0000000e+0 0.0000000e+0 1.00000000
vn 1.00000000 0.0000000e+0 0.0000000e+0
vn 0.0000000e+0 1.00000000 0.0000000e+0
vn 0.0000000e+0 0.0000000e+0 1.00000000
vn 1.00000000 0.0000000e+0 0.0000000e+0
vn 0.0000000e+0 -1.00000000 0.0000000e+0
vn 0.0000000e+0 0.0000000e+0 1.00000000
vn 1.00000000 0.0000000e+0 0.0000000e+0
vn 0.0000000e+0 -1.00000000 0.0000000e+0
vn 0.0000000e+0 -1.00000000 0.0000000e+0
vn 0.0000000e+0 0.0000000e+0 -1.00000000
vn -1.00000000 0.0000000e+0 0.0000000e+0
vn 0.0000000e+0 0.0000000e+0 -1.00000000
vn 0.0000000e+0 -1.00000000 0.0000000e+0
vn -1.00000000 0.0000000e+0 0.0000000e+0
vn 0.0000000e+0 1.00000000 0.0000000e+0
vn -1.00000000 0.0000000e+0 0.0000000e+0
vn 0.0000000e+0 0.0000000e+0 -1.00000000
vn 1.00000000 0.0000000e+0 0.0000000e+0
vn 0.0000000e+0 1.00000000 0.0000000e+0
vn 0.0000000e+0 0.0000000e+0 -1.00000000
vn 1.00000000 0.0000000e+0 0.0000000e+0
vn 0.0000000e+0 0.0000000e+0 -1.00000000
vn 0.0000000e+0 1.00000000 0.0000000e+0
vn 1.00000000 0.0000000e+0 0.0000000e+0
vn 0.0000000e+0 -1.00000000 0.0000000e+0
vn 0.0000000e+0 0.0000000e+0 -1.00000000
g cube9_default
usemtl default
s 1
f 17//74 21//95 20//90
f 18//76 20//85 19//82
f 21//92 23//102 24//108
f 22//98 21//93 18//78
s 2
f 17//73 20//88 18//79
f 20//87 21//91 24//107
f 20//89 23//103 19//83
f 22//99 23//104 21//94
s 3
f 18//81 21//96 17//75
f 18//77 23//101 22//97
f 24//106 23//100 20//86
s 4
f 19//84 23//105 18//80
o cube6_copy8
#8 vertices, 12 faces
v -2.42740800 -0.96151680 -3.90821760
v -2.42740800 -0.60151680 -3.90821760
v 1.35835200 -0.60151680 -3.90821760
v 1.35835200 -0.96151680 -3.90821760
v -2.42740800 -0.96151680 -4.26821760
v -2.42740800 -0.60151680 -4.26821760
v 1.35835200 -0.60151680 -4.26821760
v 1.35835200 -0.96151680 -4.26821760
vn 0.0000000e+0 0.0000000e+0 1.00000000
vn 0.0000000e+0 -1.00000000 0.0000000e+0
vn -1.00000000 0.0000000e+0 0.0000000e+0
vn 0.0000000e+0 0.0000000e+0 1.00000000
vn 0.0000000e+0 1.00000000 0.0000000e+0
vn -1.00000000 0.0000000e+0 0.0000000e+0
vn 0.0000000e+0 0.0000000e+0 1.00000000
vn 0.0000000e+0 1.00000000 0.0000000e+0
vn -1.00000000 0.0000000e+0 0.0000000e+0
vn 0.0000000e+0 0.0000000e+0 1.00000000
vn 1.00000000 0.0000000e+0 0.0000000e+0
vn 0.0000000e+0 1.00000000 0.0000000e+0
vn 0.0000000e+0 0.0000000e+0 1.00000000
vn 1.00000000 0.0000000e+0 0.0000000e+0
vn 0.0000000e+0 -1.00000000 0.0000000e+0
vn 0.0000000e+0 0.0000000e+0 1.00000000
vn 1.00000000 0.0000000e+0 0.0000000e+0
vn 0.0000000e+0 -1.00000000 0.0000000e+0
vn 0.0000000e+0 -1.00000000 0.0000000e+0
vn 0.0000000e+0 0.0000000e+0 -1.00000000
vn -1.00000000 0.0000000e+0 0.0000000e+0
vn 0.0000000e+0 0.0000000e+0 -1.00000000
vn 0.0000000e+0 -1.00000000 0.0000000e+0
vn -1.00000000 0.0000000e+0 0.0000000e+0
vn 0.0000000e+0 1.00000000 0.0000000e+0
vn -1.00000000 0.0000000e+0 0.0000000e+0
vn 0.0000000e+0 0.0000000e+0 -1.00000000
vn 1.00000000 0.0000000e+0 0.0000000e+0
vn 0.0000000e+0 1.00000000 0.0000000e+0
vn 0.0000000e+0 0.0000000e+0 -1.00000000
vn 1.00000000 0.0000000e+0 0.0000000e+0
vn 0.0000000e+0 0.0000000e+0 -1.00000000
vn 0.0000000e+0 1.00000000 0.0000000e+0
vn 1.00000000 0.0000000e+0 0.0000000e+0
vn 0.0000000e+0 -1.00000000 0.0000000e+0
vn 0.0000000e+0 0.0000000e+0 -1.00000000
g cube6_copy8_default
usemtl default
s 1
f 25//110 29//131 28//126
f 26//112 28//121 27//118
f 29//128 31//138 32//144
f 30//134 29//129 26//114
s 2
f 25//109 28//124 26//115
f 28//123 29//127 32//143
f 28//125 31//139 27//119
f 30//135 31//140 29//130
s 3
f 26//117 29//132 25//111
f 26//113 31//137 30//133
f 32//142 31//136 28//122
s 4
f 27//120 31//141 26//116
o cube6_copy7
#8 vertices, 12 faces
v -2.42740800 -1.09422720 -3.52483200
v -2.42740800 -0.73422720 -3.52483200
v 1.35835200 -0.73422720 -3.52483200
v 1.35835200 -1.09422720 -3.52483200
v -2.42740800 -1.09422720 -3.88483200
v -2.42740800 -0.73422720 -3.88483200
v 1.35835200 -0.73422720 -3.88483200
v 1.35835200 -1.09422720 -3.88483200
vn 0.0000000e+0 0.0000000e+0 1.00000000
vn 0.0000000e+0 -1.00000000 0.0000000e+0
vn -1.00000000 0.0000000e+0 0.0000000e+0
vn 0.0000000e+0 0.0000000e+0 1.00000000
vn 0.0000000e+0 1.00000000 0.0000000e+0
vn -1.00000000 0.0000000e+0 0.0000000e+0
vn 0.0000000e+0 0.0000000e+0 1.00000000
vn 0.0000000e+0 1.00000000 0.0000000e+0
vn -1.00000000 0.0000000e+0 0.0000000e+0
vn 0.0000000e+0 0.0000000e+0 1.00000000
vn 1.00000000 0.0000000e+0 0.0000000e+0
vn 0.0000000e+0 1.00000000 0.0000000e+0
vn 0.0000000e+0 0.0000000e+0 1.00000000
vn 1.00000000 0.0000000e+0 0.0000000e+0
vn 0.0000000e+0 -1.00000000 0.0000000e+0
vn 0.0000000e+0 0.0000000e+0 1.00000000
vn 1.00000000 0.0000000e+0 0.0000000e+0
vn 0.0000000e+0 -1.00000000 0.0000000e+0
vn 0.0000000e+0 -1.00000000 0.0000000e+0
vn 0.0000000e+0 0.0000000e+0 -1.00000000
vn -1.00000000 0.0000000e+0 0.0000000e+0
vn 0.0000000e+0 0.0000000e+0 -1.00000000
vn 0.0000000e+0 -1.00000000 0.0000000e+0
vn -1.00000000 0.0000000e+0 0.0000000e+0
vn 0.0000000e+0 1.00000000 0.0000000e+0
vn -1.00000000 0.0000000e+0 0.0000000e+0
vn 0.0000000e+0 0.0000000e+0 -1.00000000
vn 1.00000000 0.0000000e+0 0.0000000e+0
vn 0.0000000e+0 1.00000000 0.0000000e+0
vn 0.0000000e+0 0.0000000e+0 -1.00000000
vn 1.00000000 0.0000000e+0 0.0000000e+0
vn 0.0000000e+0 0.0000000e+0 -1.00000000
vn 0.0000000e+0 1.00000000 0.0000000e+0
vn 1.00000000 0.0000000e+0 0.0000000e+0
vn 0.0000000e+0 -1.00000000 0.0000000e+0
vn 0.0000000e+0 0.0000000e+0 -1.00000000
g cube6_copy7_default
usemtl default
s 1
f 33//146 37//167 36//162
f 34//148 36//157 35//154
f 37//164 39//174 40//180
f 38//170 37//165 34//150
s 2
f 33//145 36//160 34//151
f 36//159 37//163 40//179
f 36//161 39//175 35//155
f 38//171 39//176 37//166
s 3
f 34//153 37//168 33//147
f 34//149 39//173 38//169
f 40//178 39//172 36//158
s 4
f 35//156 39//177 34//152
o cube6
#8 vertices, 12 faces
v -2.42740800 -1.19376000 -3.14513280
v -2.42740800 -0.83376000 -3.14513280
v 1.35835200 -0.83376000 -3.14513280
v 1.35835200 -1.19376000 -3.14513280
v -2.42740800 -1.19376000 -3.50513280
v -2.42740800 -0.83376000 -3.50513280
v 1.35835200 -0.83376000 -3.50513280
v 1.35835200 -1.19376000 -3.50513280
vn 0.0000000e+0 0.0000000e+0 1.00000000
vn 0.0000000e+0 -1.00000000 0.0000000e+0
vn -1.00000000 0.0000000e+0 0.0000000e+0
vn 0.0000000e+0 0.0000000e+0 1.00000000
vn 0.0000000e+0 1.00000000 0.0000000e+0
vn -1.00000000 0.0000000e+0 0.0000000e+0
vn 0.0000000e+0 0.0000000e+0 1.00000000
vn 0.0000000e+0 1.00000000 0.0000000e+0
vn -1.00000000 0.0000000e+0 0.0000000e+0
vn 0.0000000e+0 0.0000000e+0 1.00000000
vn 1.00000000 0.0000000e+0 0.0000000e+0
vn 0.0000000e+0 1.00000000 0.0000000e+0
vn 0.0000000e+0 0.0000000e+0 1.00000000
vn 1.00000000 0.0000000e+0 0.0000000e+0
vn 0.0000000e+0 -1.00000000 0.0000000e+0
vn 0.0000000e+0 0.0000000e+0 1.00000000
vn 1.00000000 0.0000000e+0 0.0000000e+0
vn 0.0000000e+0 -1.00000000 0.0000000e+0
vn 0.0000000e+0 -1.00000000 0.0000000e+0
vn 0.0000000e+0 0.0000000e+0 -1.00000000
vn -1.00000000 0.0000000e+0 0.0000000e+0
vn 0.0000000e+0 0.0000000e+0 -1.00000000
vn 0.0000000e+0 -1.00000000 0.0000000e+0
vn -1.00000000 0.0000000e+0 0.0000000e+0
vn 0.0000000e+0 1.00000000 0.0000000e+0
vn -1.00000000 0.0000000e+0 0.0000000e+0
vn 0.0000000e+0 0.0000000e+0 -1.00000000
vn 1.00000000 0.0000000e+0 0.0000000e+0
vn 0.0000000e+0 1.00000000 0.0000000e+0
vn 0.0000000e+0 0.0000000e+0 -1.00000000
vn 1.00000000 0.0000000e+0 0.0000000e+0
vn 0.0000000e+0 0.0000000e+0 -1.00000000
vn 0.0000000e+0 1.00000000 0.0000000e+0
vn 1.00000000 0.0000000e+0 0.0000000e+0
vn 0.0000000e+0 -1.00000000 0.0000000e+0
vn 0.0000000e+0 0.0000000e+0 -1.00000000
g cube6_default
usemtl default
s 1
f 41//182 45//203 44//198
f 42//184 44//193 43//190
f 45//200 47//210 48//216
f 46//206 45//201 42//186
s 2
f 41//181 44//196 42//187
f 44//195 45//199 48//215
f 44//197 47//211 43//191
f 46//207 47//212 45//202
s 3
f 42//189 45//204 41//183
f 42//185 47//209 46//205
f 48//214 47//208 44//194
s 4
f 43//192 47//213 42//188
o grid5
#8 vertices, 12 faces
v -7.40533333 -1.21733333 -8.16444444
v 2.59466667 -1.21733333 -8.16444444
v -7.40533333 -1.21733333 1.83555556
v 2.59466667 -1.21733333 1.83555556
v -7.40533333 -1.41733333 -8.16444444
v 2.59466667 -1.41733333 -8.16444444
v -7.40533333 -1.41733333 1.83555556
v 2.59466667 -1.41733333 1.83555556
vn -1.00000000 0.0000000e+0 0.0000000e+0
vn 0.0000000e+0 0.0000000e+0 -1.00000000
vn 0.0000000e+0 1.00000000 0.0000000e+0
vn 0.0000000e+0 0.0000000e+0 -1.00000000
vn 1.00000000 0.0000000e+0 0.0000000e+0
vn 0.0000000e+0 0.0000000e+0 -1.00000000
vn 0.0000000e+0 1.00000000 0.0000000e+0
vn 0.0000000e+0 1.00000000 0.0000000e+0
vn 1.00000000 0.0000000e+0 0.0000000e+0
vn -1.00000000 0.0000000e+0 0.0000000e+0
vn 0.0000000e+0 1.00000000 0.0000000e+0
vn -1.00000000 0.0000000e+0 0.0000000e+0
vn 0.0000000e+0 1.00000000 0.0000000e+0
vn 0.0000000e+0 0.0000000e+0 1.00000000
vn 0.0000000e+0 0.0000000e+0 1.00000000
vn 1.00000000 0.0000000e+0 0.0000000e+0
vn 0.0000000e+0 1.00000000 0.0000000e+0
vn 0.0000000e+0 0.0000000e+0 1.00000000
vn -1.00000000 0.0000000e+0 0.0000000e+0
vn 0.0000000e+0 0.0000000e+0 -1.00000000
vn 0.0000000e+0 -1.00000000 0.0000000e+0
vn 0.0000000e+0 0.0000000e+0 -1.00000000
vn -1.00000000 0.0000000e+0 0.0000000e+0
vn 0.0000000e+0 -1.00000000 0.0000000e+0
vn 0.0000000e+0 0.0000000e+0 -1.00000000
vn 0.0000000e+0 -1.00000000 0.0000000e+0
vn 1.00000000 0.0000000e+0 0.0000000e+0
vn 0.0000000e+0 -1.00000000 0.0000000e+0
vn -1.00000000 0.0000000e+0 0.0000000e+0
vn 0.0000000e+0 0.0000000e+0 1.00000000
vn 1.00000000 0.0000000e+0 0.0000000e+0
vn 0.0000000e+0 -1.00000000 0.0000000e+0
vn 0.0000000e+0 -1.00000000 0.0000000e+0
vn 1.00000000 0.0000000e+0 0.0000000e+0
vn 0.0000000e+0 0.0000000e+0 1.00000000
vn 0.0000000e+0 0.0000000e+0 1.00000000
g grid5_default2
usemtl default2
s 1
f 49//217 53//235 51//226
f 50//225 56//250 54//243
f 51//227 52//233 50//223
f 53//237 56//248 55//244
s 2
f 50//222 53//238 49//218
f 52//232 56//247 50//221
f 53//239 55//245 51//228
f 54//242 56//249 53//240
s 3
f 49//219 51//229 50//224
f 50//220 54//241 53//236
f 55//246 56//252 51//231
s 4
f 51//230 56//251 52//234
o cube3
#8 vertices, 12 faces
v -4.36288889 -1.20622222 -4.27533333
v -4.36288889 0.79377778 -4.27533333
v -3.55888889 0.79377778 -4.27533333
v -3.55888889 -1.20622222 -4.27533333
v -4.36288889 -1.20622222 -5.07933333
v -4.36288889 0.79377778 -5.07933333
v -3.55888889 0.79377778 -5.07933333
v -3.55888889 -1.20622222 -5.07933333
vn 0.0000000e+0 0.0000000e+0 1.00000000
vn -1.00000000 0.0000000e+0 0.0000000e+0
vn 0.0000000e+0 -1.00000000 0.0000000e+0
vn 0.0000000e+0 0.0000000e+0 1.00000000
vn 0.0000000e+0 1.00000000 0.0000000e+0
vn 0.0000000e+0 0.0000000e+0 1.00000000
vn -1.00000000 0.0000000e+0 0.0000000e+0
vn 0.0000000e+0 1.00000000 0.0000000e+0
vn -1.00000000 0.0000000e+0 0.0000000e+0
vn 0.0000000e+0 1.00000000 0.0000000e+0
vn 0.0000000e+0 0.0000000e+0 1.00000000
vn 1.00000000 0.0000000e+0 0.0000000e+0
vn 0.0000000e+0 0.0000000e+0 1.00000000
vn 1.00000000 0.0000000e+0 0.0000000e+0
vn 0.0000000e+0 0.0000000e+0 1.00000000
vn 0.0000000e+0 -1.00000000 0.0000000e+0
vn 1.00000000 0.0000000e+0 0.0000000e+0
vn 0.0000000e+0 -1.00000000 0.0000000e+0
vn 0.0000000e+0 0.0000000e+0 -1.00000000
vn -1.00000000 0.0000000e+0 0.0000000e+0
vn 0.0000000e+0 0.0000000e+0 -1.00000000
vn 0.0000000e+0 -1.00000000 0.0000000e+0
vn -1.00000000 0.0000000e+0 0.0000000e+0
vn 0.0000000e+0 -1.00000000 0.0000000e+0
vn 0.0000000e+0 0.0000000e+0 -1.00000000
vn 0.0000000e+0 1.00000000 0.0000000e+0
vn -1.00000000 0.0000000e+0 0.0000000e+0
vn 0.0000000e+0 1.00000000 0.0000000e+0
vn 1.00000000 0.0000000e+0 0.0000000e+0
vn 0.0000000e+0 0.0000000e+0 -1.00000000
vn 0.0000000e+0 1.00000000 0.0000000e+0
vn 0.0000000e+0 0.0000000e+0 -1.00000000
vn 1.00000000 0.0000000e+0 0.0000000e+0
vn 1.00000000 0.0000000e+0 0.0000000e+0
vn 0.0000000e+0 0.0000000e+0 -1.00000000
vn 0.0000000e+0 -1.00000000 0.0000000e+0
g cube3_default2
usemtl default2
s 1
f 57//253 60//265 58//256
f 58//261 62//279 61//275
f 60//269 63//285 59//264
f 63//284 64//287 61//273
s 2
f 58//258 60//267 59//263
f 58//259 61//272 57//254
f 58//260 63//283 62//278
f 60//266 64//286 63//281
s 3
f 57//255 61//274 60//268
f 59//262 63//280 58//257
f 62//277 63//282 61//271
s 4
f 61//276 64//288 60//270
o cube2
#8 vertices, 12 faces
v -1.00000000 -1.21155556 -7.04800000
v -1.00000000 0.78844444 -7.04800000
v 1.00000000 0.78844444 -7.04800000
v 1.00000000 -1.21155556 -7.04800000
v -1.00000000 -1.21155556 -9.04800000
v -1.00000000 0.78844444 -9.04800000
v 1.00000000 0.78844444 -9.04800000
v 1.00000000 -1.21155556 -9.04800000
vn 0.0000000e+0 0.0000000e+0 1.00000000
vn -1.00000000 0.0000000e+0 0.0000000e+0
vn 0.0000000e+0 -1.00000000 0.0000000e+0
vn 0.0000000e+0 0.0000000e+0 1.00000000
vn 0.0000000e+0 1.00000000 0.0000000e+0
vn 0.0000000e+0 0.0000000e+0 1.00000000
vn -1.00000000 0.0000000e+0 0.0000000e+0
vn 0.0000000e+0 1.00000000 0.0000000e+0
vn -1.00000000 0.0000000e+0 0.0000000e+0
vn 0.0000000e+0 1.00000000 0.0000000e+0
vn 0.0000000e+0 0.0000000e+0 1.00000000
vn 1.00000000 0.0000000e+0 0.0000000e+0
vn 0.0000000e+0 0.0000000e+0 1.00000000
vn 1.00000000 0.0000000e+0 0.0000000e+0
vn 0.0000000e+0 0.0000000e+0 1.00000000
vn 0.0000000e+0 -1.00000000 0.0000000e+0
vn 1.00000000 0.0000000e+0 0.0000000e+0
vn 0.0000000e+0 -1.00000000 0.0000000e+0
vn 0.0000000e+0 0.0000000e+0 -1.00000000
vn -1.00000000 0.0000000e+0 0.0000000e+0
vn 0.0000000e+0 0.0000000e+0 -1.00000000
vn 0.0000000e+0 -1.00000000 0.0000000e+0
vn -1.00000000 0.0000000e+0 0.0000000e+0
vn 0.0000000e+0 -1.00000000 0.0000000e+0
vn 0.0000000e+0 0.0000000e+0 -1.00000000
vn 0.0000000e+0 1.00000000 0.0000000e+0
vn -1.00000000 0.0000000e+0 0.0000000e+0
vn 0.0000000e+0 1.00000000 0.0000000e+0
vn 1.00000000 0.0000000e+0 0.0000000e+0
vn 0.0000000e+0 0.0000000e+0 -1.00000000
vn 0.0000000e+0 1.00000000 0.0000000e+0
vn 0.0000000e+0 0.0000000e+0 -1.00000000
vn 1.00000000 0.0000000e+0 0.0000000e+0
vn 1.00000000 0.0000000e+0 0.0000000e+0
vn 0.0000000e+0 0.0000000e+0 -1.00000000
vn 0.0000000e+0 -1.00000000 0.0000000e+0
g cube2_default3
usemtl default3
s 1
f 65//289 68//301 66//292
f 66//297 70//315 69//311
f 68//305 71//321 67//300
f 71//320 72//323 69//309
s 2
f 66//294 68//303 67//299
f 66//295 69//308 65//290
f 66//296 71//319 70//314
f 68//302 72//322 71//317
s 3
f 65//291 69//310 68//304
f 67//298 71//316 66//293
f 70//313 71//318 69//307
s 4
f 69//312 72//324 68//306
o cube1
#8 vertices, 12 faces
v -6.98755556 -1.20844444 1.00000000
v -6.98755556 3.90355556 1.00000000
v -4.98755556 3.90355556 1.00000000
v -4.98755556 -1.20844444 1.00000000
v -6.98755556 -1.20844444 -1.00000000
v -6.98755556 3.90355556 -1.00000000
v -4.98755556 3.90355556 -1.00000000
v -4.98755556 -1.20844444 -1.00000000
vn 0.0000000e+0 0.0000000e+0 1.00000000
vn -1.00000000 0.0000000e+0 0.0000000e+0
vn 0.0000000e+0 -1.00000000 0.0000000e+0
vn 0.0000000e+0 0.0000000e+0 1.00000000
vn 0.0000000e+0 1.00000000 0.0000000e+0
vn 0.0000000e+0 0.0000000e+0 1.00000000
vn -1.00000000 0.0000000e+0 0.0000000e+0
vn 0.0000000e+0 1.00000000 0.0000000e+0
vn -1.00000000 0.0000000e+0 0.0000000e+0
vn 0.0000000e+0 1.00000000 0.0000000e+0
vn 0.0000000e+0 0.0000000e+0 1.00000000
vn 1.00000000 0.0000000e+0 0.0000000e+0
vn 0.0000000e+0 0.0000000e+0 1.00000000
vn 1.00000000 0.0000000e+0 0.0000000e+0
vn 0.0000000e+0 0.0000000e+0 1.00000000
vn 0.0000000e+0 -1.00000000 0.0000000e+0
vn 1.00000000 0.0000000e+0 0.0000000e+0
vn 0.0000000e+0 -1.00000000 0.0000000e+0
vn 0.0000000e+0 0.0000000e+0 -1.00000000
vn -1.00000000 0.0000000e+0 0.0000000e+0
vn 0.0000000e+0 0.0000000e+0 -1.00000000
vn 0.0000000e+0 -1.00000000 0.0000000e+0
vn -1.00000000 0.0000000e+0 0.0000000e+0
vn 0.0000000e+0 -1.00000000 0.0000000e+0
vn 0.0000000e+0 0.0000000e+0 -1.00000000
vn 0.0000000e+0 1.00000000 0.0000000e+0
vn -1.00000000 0.0000000e+0 0.0000000e+0
vn 0.0000000e+0 1.00000000 0.0000000e+0
vn 1.00000000 0.0000000e+0 0.0000000e+0
vn 0.0000000e+0 0.0000000e+0 -1.00000000
vn 0.0000000e+0 1.00000000 0.0000000e+0
vn 0.0000000e+0 0.0000000e+0 -1.00000000
vn 1.00000000 0.0000000e+0 0.0000000e+0
vn 1.00000000 0.0000000e+0 0.0000000e+0
vn 0.0000000e+0 0.0000000e+0 -1.00000000
vn 0.0000000e+0 -1.00000000 0.0000000e+0
g cube1_default4
usemtl default4
s 1
f 73//325 76//337 74//328
f 74//333 78//351 77//347
f 76//341 79//357 75//336
f 79//356 80//359 77//345
s 2
f 74//330 76//339 75//335
f 74//331 77//344 73//326
f 74//332 79//355 78//350
f 76//338 80//358 79//353
s 3
f 73//327 77//346 76//340
f 75//334 79//352 74//329
f 78//349 79//354 77//343
s 4
f 77//348 80//360 76//342
o cube5
#8 vertices, 12 faces
v -6.35619174 -1.00000000 -2.31776000
v -6.35619174 1.00000000 -2.31776000
v -4.35619174 1.00000000 -2.31776000
v -4.35619174 -1.00000000 -2.31776000
v -6.35619174 -1.00000000 -4.31776000
v -6.35619174 1.00000000 -4.31776000
v -4.35619174 1.00000000 -4.31776000
v -4.35619174 -1.00000000 -4.31776000
vn 0.0000000e+0 -1.00000000 0.0000000e+0
vn 0.0000000e+0 0.0000000e+0 1.00000000
vn -1.00000000 0.0000000e+0 0.0000000e+0
vn 0.0000000e+0 0.0000000e+0 1.00000000
vn -1.00000000 0.0000000e+0 0.0000000e+0
vn 0.0000000e+0 0.0000000e+0 1.00000000
vn -1.00000000 0.0000000e+0 0.0000000e+0
vn 0.0000000e+0 1.00000000 0.0000000e+0
vn 0.0000000e+0 1.00000000 0.0000000e+0
vn 0.0000000e+0 0.0000000e+0 1.00000000
vn 1.00000000 0.0000000e+0 0.0000000e+0
vn 0.0000000e+0 1.00000000 0.0000000e+0
vn 0.0000000e+0 -1.00000000 0.0000000e+0
vn 0.0000000e+0 0.0000000e+0 1.00000000
vn 0.0000000e+0 0.0000000e+0 1.00000000
vn 0.0000000e+0 -1.00000000 0.0000000e+0
vn 1.00000000 0.0000000e+0 0.0000000e+0
vn 1.00000000 0.0000000e+0 0.0000000e+0
vn 0.0000000e+0 -1.00000000 0.0000000e+0
vn 0.0000000e+0 0.0000000e+0 -1.00000000
vn -1.00000000 0.0000000e+0 0.0000000e+0
vn 0.0000000e+0 -1.00000000 0.0000000e+0
vn 0.0000000e+0 0.0000000e+0 -1.00000000
vn -1.00000000 0.0000000e+0 0.0000000e+0
vn -1.00000000 0.0000000e+0 0.0000000e+0
vn 0.0000000e+0 0.0000000e+0 -1.00000000
vn 0.0000000e+0 1.00000000 0.0000000e+0
vn 0.0000000e+0 0.0000000e+0 -1.00000000
vn 1.00000000 0.0000000e+0 0.0000000e+0
vn 0.0000000e+0 0.0000000e+0 -1.00000000
vn 0.0000000e+0 1.00000000 0.0000000e+0
vn 1.00000000 0.0000000e+0 0.0000000e+0
vn 0.0000000e+0 1.00000000 0.0000000e+0
vn 0.0000000e+0 0.0000000e+0 -1.00000000
vn 0.0000000e+0 -1.00000000 0.0000000e+0
vn 1.00000000 0.0000000e+0 0.0000000e+0
g cube5_default2
usemtl default2
s 1
f 81//361 85//379 84//373
f 82//368 87//391 86//387
f 84//377 87//389 83//371
f 87//388 88//394 85//380
s 2
f 81//362 84//375 82//366
f 83//372 87//393 82//369
f 85//382 88//395 84//376
f 86//386 87//390 85//383
s 3
f 82//364 84//374 83//370
f 82//367 85//384 81//363
f 84//378 88//396 87//392
s 4
f 82//365 86//385 85//381
